<svg viewBox="0 0 300 66" xmlns="http://www.w3.org/2000/svg">
  <!-- Sintra Labs Logo - Hexagonal Tessellation with Text -->

  <!-- Hexagonal pattern -->
  <!-- Row 1 (top) - 4 hexagons -->
  <polygon points="18,3 24,0 30,3 30,9 24,12 18,9" fill="#1e3a8a" opacity="0.2"/>
  <polygon points="30,3 36,0 42,3 42,9 36,12 30,9" fill="#1e3a8a" opacity="0.6"/>
  <polygon points="42,3 48,0 54,3 54,9 48,12 42,9" fill="#1e3a8a" opacity="0.9"/>
  <polygon points="54,3 60,0 66,3 66,9 60,12 54,9" fill="#1e3a8a" opacity="0.7"/>

  <!-- Row 2 - 5 hexagons (offset by 6 units, down by 9 units) -->
  <polygon points="12,12 18,9 24,12 24,18 18,21 12,18" fill="#1e3a8a" opacity="0.1"/>
  <polygon points="24,12 30,9 36,12 36,18 30,21 24,18" fill="#1e3a8a" opacity="0.5"/>
  <polygon points="36,12 42,9 48,12 48,18 42,21 36,18" fill="#1e3a8a" opacity="0.8"/>
  <polygon points="48,12 54,9 60,12 60,18 54,21 48,18" fill="#1e3a8a"/>
  <polygon points="60,12 66,9 72,12 72,18 66,21 60,18" fill="#1e3a8a" opacity="0.8"/>

  <!-- Row 3 - 6 hexagons -->
  <polygon points="6,21 12,18 18,21 18,27 12,30 6,27" fill="#1e3a8a" opacity="0.1"/>
  <polygon points="18,21 24,18 30,21 30,27 24,30 18,27" fill="#1e3a8a" opacity="0.4"/>
  <polygon points="30,21 36,18 42,21 42,27 36,30 30,27" fill="#1e3a8a" opacity="0.7"/>
  <polygon points="42,21 48,18 54,21 54,27 48,30 42,27" fill="#1e3a8a" opacity="0.9"/>
  <polygon points="54,21 60,18 66,21 66,27 60,30 54,27" fill="#1e3a8a"/>
  <polygon points="66,21 72,18 78,21 78,27 72,30 66,27" fill="#1e3a8a" opacity="0.6"/>

  <!-- Row 4 (center) - 7 hexagons (offset) -->
  <polygon points="0,30 6,27 12,30 12,36 6,39 0,36" fill="#1e3a8a" opacity="0.1"/>
  <polygon points="12,30 18,27 24,30 24,36 18,39 12,36" fill="#1e3a8a" opacity="0.3"/>
  <polygon points="24,30 30,27 36,30 36,36 30,39 24,36" fill="#1e3a8a" opacity="0.6"/>
  <polygon points="36,30 42,27 48,30 48,36 42,39 36,36" fill="#1e3a8a" opacity="0.8"/>
  <polygon points="48,30 54,27 60,30 60,36 54,39 48,36" fill="#1e3a8a"/>
  <polygon points="60,30 66,27 72,30 72,36 66,39 60,36" fill="#1e3a8a" opacity="0.7"/>
  <polygon points="72,30 78,27 84,30 84,36 78,39 72,36" fill="#1e3a8a" opacity="0.4"/>

  <!-- Row 5 - 6 hexagons -->
  <polygon points="6,39 12,36 18,39 18,45 12,48 6,45" fill="#1e3a8a" opacity="0.1"/>
  <polygon points="18,39 24,36 30,39 30,45 24,48 18,45" fill="#1e3a8a" opacity="0.3"/>
  <polygon points="30,39 36,36 42,39 42,45 36,48 30,45" fill="#1e3a8a" opacity="0.5"/>
  <polygon points="42,39 48,36 54,39 54,45 48,48 42,45" fill="#1e3a8a" opacity="0.6"/>
  <polygon points="54,39 60,36 66,39 66,45 60,48 54,45" fill="#1e3a8a" opacity="0.4"/>
  <polygon points="66,39 72,36 78,39 78,45 72,48 66,45" fill="#1e3a8a" opacity="0.3"/>

  <!-- Row 6 - 5 hexagons (offset) -->
  <polygon points="12,48 18,45 24,48 24,54 18,57 12,54" fill="#1e3a8a" opacity="0.1"/>
  <polygon points="24,48 30,45 36,48 36,54 30,57 24,54" fill="#1e3a8a" opacity="0.3"/>
  <polygon points="36,48 42,45 48,48 48,54 42,57 36,54" fill="#1e3a8a" opacity="0.4"/>
  <polygon points="48,48 54,45 60,48 60,54 54,57 48,54" fill="#1e3a8a" opacity="0.3"/>
  <polygon points="60,48 66,45 72,48 72,54 66,57 60,54" fill="#1e3a8a" opacity="0.2"/>

  <!-- Row 7 (bottom) - 4 hexagons -->
  <polygon points="18,57 24,54 30,57 30,63 24,66 18,63" fill="#1e3a8a" opacity="0.1"/>
  <polygon points="30,57 36,54 42,57 42,63 36,66 30,63" fill="#1e3a8a" opacity="0.2"/>
  <polygon points="42,57 48,54 54,57 54,63 48,66 42,63" fill="#1e3a8a" opacity="0.2"/>
  <polygon points="54,57 60,54 66,57 66,63 60,66 54,63" fill="#1e3a8a" opacity="0.1"/>

  <!-- Text: Sintra Labs -->
  <text x="95" y="44" font-family="Inter, -apple-system, BlinkMacSystemFont, Helvetica Neue, sans-serif" font-size="36" font-weight="600" fill="#1e3a8a" letter-spacing="-0.72" style="font-weight: 600;">Sintra Labs</text>
</svg>
